<svg width="32" height="22" viewBox="0 0 32 22" fill="none" xmlns="http://www.w3.org/2000/svg">
<g clip-path="url(#clip0_404_55)">
<path d="M10.848 19L14.352 4H20.304L20.736 11.632H20.904L24.024 4H29.976L28.2 19H23.424L24.432 11.728H24.264L21.264 19H17.784L17.28 11.728H17.16L15.6 19H10.848ZM13.368 5.08L3.312 4H13.608L13.368 5.08ZM12.816 7.384L2.76 6.304H13.08L12.816 7.384ZM12.288 9.688L2.208 8.608H12.528L12.288 9.688ZM11.736 11.992L1.656 10.912H12L11.736 11.992ZM11.208 14.296L1.104 13.216H11.448L11.208 14.296ZM10.656 16.6L0.552 15.52H10.92L10.656 16.6ZM10.128 18.928L0 17.848H10.368L10.128 18.928Z" fill="#8750F7"/>
</g>
<defs>
<clipPath id="clip0_404_55">
<rect width="32" height="22" fill="white"/>
</clipPath>
</defs>
</svg>
